<svg width="58" height="66" viewBox="0 0 58 66" fill="none" xmlns="http://www.w3.org/2000/svg">
<path d="M25.689 65.3375C24.4101 65.3375 23.1323 65.3417 21.8545 65.3417C14.1505 64.865 7.13588 62.4063 0.752686 58.1371C2.39662 57.7733 4.10739 57.4179 5.81017 57.0123C6.47752 56.8534 7.10199 56.5022 7.77233 56.3976C9.00029 56.2053 10.2572 56.2052 11.4751 55.9837C15.4802 55.2645 19.5352 54.7083 23.251 52.8977C25.693 51.7102 28.2287 50.6649 30.526 49.2474C32.0333 48.315 33.3709 46.9727 34.4662 45.5719C36.6877 42.737 38.7217 39.764 40.7726 36.8077C42.4545 34.3824 43.6266 31.7649 43.6046 28.7375C43.5966 27.2908 43.7662 25.844 43.7532 24.3973C43.7283 21.1316 43.4859 17.8617 43.6306 14.6044C43.7453 11.9366 44.4116 9.29398 44.6032 6.62624C44.7258 4.89931 44.4246 3.14312 44.3099 1.40365C44.2889 1.08587 44.246 0.768076 44.3528 0.375023C45.9528 2.12285 48.1065 3.09295 49.5838 5.06657C51.104 7.09874 52.4038 9.24798 53.7585 11.3596C55.0114 13.3082 55.7715 15.5159 55.9959 17.8617C56.0428 18.3677 56.2553 18.8568 56.3491 19.3628C56.6633 21.0856 57.0364 22.8 57.2279 24.5353C57.4065 26.1409 57.4234 27.7716 57.4444 29.3899C57.5042 34.1525 56.5356 38.7019 54.4508 43.0088C53.6697 44.627 53.0283 46.333 52.0686 47.8466C49.9708 51.1625 47.5668 54.2317 44.1273 56.3767C42.9552 57.1085 42.0086 58.1747 40.8614 58.9483C38.6958 60.4076 36.5052 61.8419 34.2368 63.1297C33.1076 63.7694 31.7739 64.058 30.534 64.5054C30.3724 64.6099 30.2118 64.7187 30.0462 64.8274C29.706 64.911 29.3709 64.9905 29.0307 65.074C28.8911 65.0782 28.7504 65.0824 28.6107 65.0907C28.3384 65.1075 28.0671 65.1201 27.7948 65.1368C27.5065 65.1953 27.2172 65.2538 26.9289 65.3124C26.5169 65.3249 26.1049 65.3333 25.689 65.3375Z" fill="white"/>
</svg>
